<?xml version="1.0" encoding="utf-8"?>
<!-- Generator: Adobe Illustrator 28.0.0, SVG Export Plug-In . SVG Version: 6.00 Build 0)  -->
<svg version="1.1" id="Logos" xmlns="http://www.w3.org/2000/svg" xmlns:xlink="http://www.w3.org/1999/xlink" x="0px" y="0px"
	 viewBox="0 0 253.4 53.3" style="enable-background:new 0 0 253.4 53.3;" xml:space="preserve">
<g>
	<path d="M63.1,12.3h5.3v11.4h12.2V12.3H86v28h-5.4V28.6H68.4v11.8h-5.3C63.1,40.3,63.1,12.3,63.1,12.3z"/>
	<path d="M89.4,34.9c0-4.2,3-5.6,6.6-6.4L102,27v-0.5c0-2-1.3-3.3-3.4-3.3c-2.1,0-3.4,1.2-3.8,3.1l-4.6-0.5c0.7-3.8,3.9-6.3,8.5-6.3
		c5.1,0,8.4,3.2,8.4,7.9v8.2c0,0.5,0.2,0.7,0.5,0.7h1.1v4.1h-3.1c-2,0-2.8-0.6-2.8-2.2c0-0.5,0.1-1,0.3-1.8l-0.4-0.2
		c-1.4,3.1-3.6,4.5-6.6,4.5C92,40.7,89.4,38.4,89.4,34.9z M97.5,36.9c2.6,0,4.5-1.9,4.5-5v-1.6l-4.4,1c-2.2,0.5-3.1,1.3-3.1,3
		S95.7,36.9,97.5,36.9z"/>
	<path d="M110.7,34.8l4.9-1c0.5,2.2,2.2,3.2,4.5,3.2s3.6-0.9,3.6-2.5c0-1.6-1.5-1.9-4.4-2.4c-3.6-0.6-8.4-1.2-8.4-6.3
		c0-3.8,3.2-6.4,8.5-6.4c4.7,0,8.3,2,9.2,5.9l-4.9,0.8c-0.4-2-2.1-3-4.2-3c-2.4,0-3.5,1-3.5,2.4c0,1.6,1.6,1.9,4.4,2.4
		c3.6,0.6,8.3,1.2,8.3,6.3c0,4-3.2,6.6-8.6,6.6C115.2,40.8,111.6,38.8,110.7,34.8z"/>
	<path d="M137.1,40.3h-5.2V11.5h5.2v9c0,1-0.2,2-0.5,3.5l0.5,0.2c1.2-3,3.1-4.7,6.6-4.7c4.4,0,6.8,2.8,6.8,7.6v13.3h-5.2V27.2
		c0-2.3-1.2-3.6-3.5-3.6c-2.6,0-4.7,2-4.7,5.5L137.1,40.3L137.1,40.3z"/>
	<path d="M161.2,35.2c0,0.8,0.3,1,0.9,1h2.3v4.1h-4.7c-2.4,0-3.6-1.3-3.6-3.8V24.1h-2.9V20h8.1V35.2z M155.3,14.5
		c0-1.8,1.4-3.2,3.2-3.2c1.7,0,3.2,1.4,3.2,3.2s-1.4,3.2-3.2,3.2S155.3,16.3,155.3,14.5z"/>
	<path d="M166.1,26.3c0-8.4,5.5-14.5,13.5-14.5c6.7,0,11.3,3.9,12.6,9.2l-5.3,1.3c-1-3.7-3.4-5.8-7.3-5.8c-4.9,0-8,4-8,9.8
		s3.2,9.8,8.2,9.8c3.9,0,6.3-2.1,7.3-6l5,0.6c-1.2,6.3-5.8,10.2-12.4,10.2C171.6,40.8,166.1,34.7,166.1,26.3L166.1,26.3z"/>
	<path d="M194.3,30.1c0-6.2,4.4-10.6,10.4-10.6s10.4,4.4,10.4,10.6s-4.4,10.7-10.4,10.7S194.3,36.3,194.3,30.1z M209.9,30.1
		c0-3.8-2-6.4-5.2-6.4c-3.2,0-5.2,2.6-5.2,6.4s2.1,6.4,5.2,6.4S209.9,34,209.9,30.1z"/>
	<path d="M218.4,20h4.8v0.8c0,1.1,0,2-0.4,3.6l0.5,0.1c0.8-2.7,2.2-4.5,5.4-4.5h1.5v5h-2.1c-2.9,0-4.5,1.8-4.5,5v10.3h-5.2
		C218.4,40.3,218.4,20,218.4,20z"/>
	<path d="M232.7,20h5.1v0.9c0,0.9-0.1,1.6-0.4,3.3l0.5,0.1c1.2-3.2,3.6-4.8,6.6-4.8c5,0,8.9,4.1,8.9,10.6s-3.9,10.7-8.9,10.7
		c-3,0-5.2-1.6-6.5-4.8l-0.4,0.2c0.2,1.6,0.3,2.4,0.3,3.2v9.2h-5.2V20L232.7,20z M248.2,30.1c0-4-2.2-6.4-5.2-6.4
		c-3,0-5.2,2.4-5.2,6.4s2.2,6.4,5.2,6.4C246.1,36.6,248.2,34.1,248.2,30.1z"/>
	<polygon points="20.8,0.1 0.1,12.1 0.1,12.1 0.1,40.8 7.9,45.3 7.9,16.6 20.8,9.1 	"/>
	<polygon points="29.1,0.1 29.1,23 20.8,23 20.8,14.4 13,18.9 13,48.3 20.8,52.8 20.8,29.9 29.1,29.9 29.1,38.4 36.9,33.9 36.9,4.6 
			"/>
	<polygon points="29.1,52.8 49.8,40.8 49.8,40.8 49.8,12.1 42,7.6 42,36.3 29.1,43.8 	"/>
</g>
</svg>
