<?xml version="1.0" encoding="UTF-8"?><svg id="Layer_1" xmlns="http://www.w3.org/2000/svg" viewBox="0 0 439.86 116.16"><defs><style>.cls-1{isolation:isolate;}.cls-1,.cls-2{fill:#0c0a0b;stroke-width:0px;}</style></defs><g id="BLACK"><path class="cls-1" d="m109.84,41.74h6.23c.67,0,1.22.15,1.65.46.43.31.73.71.92,1.21l6.46,17.86c.29.78.58,1.62.88,2.54.3.92.58,1.88.84,2.88.21-1.01.46-1.97.74-2.88.28-.92.56-1.76.84-2.54l6.41-17.86c.15-.43.45-.81.89-1.16.44-.34.98-.52,1.63-.52h6.27l-13.37,33.36h-7.01l-13.37-33.36Zm44.65,3.11c0,.56-.11,1.1-.34,1.59-.23.5-.54.93-.94,1.3-.4.37-.86.67-1.39.89-.53.22-1.09.33-1.68.33s-1.12-.11-1.63-.33c-.5-.22-.95-.52-1.34-.89-.39-.37-.69-.81-.92-1.3-.22-.5-.33-1.03-.33-1.59s.11-1.12.33-1.63c.22-.5.53-.95.92-1.33.39-.38.84-.68,1.34-.89.5-.21,1.05-.32,1.63-.32s1.16.11,1.68.32c.53.21.99.51,1.39.89.4.38.71.82.94,1.33.23.5.34,1.05.34,1.63Zm-.82,6.5v23.74h-7.1v-23.74h7.1Zm22.85,5.63c-.21.26-.42.47-.62.62-.2.15-.48.23-.85.23s-.67-.08-.95-.25c-.28-.17-.6-.35-.95-.56s-.76-.39-1.24-.56c-.47-.17-1.06-.25-1.76-.25-.87,0-1.62.16-2.25.48-.63.32-1.16.78-1.57,1.37-.41.6-.72,1.32-.92,2.19-.2.86-.3,1.83-.3,2.92,0,2.27.44,4.02,1.32,5.24.88,1.22,2.09,1.83,3.63,1.83.82,0,1.48-.1,1.96-.31s.89-.44,1.23-.69c.34-.25.64-.48.93-.7.28-.21.64-.32,1.06-.32.56,0,.99.21,1.28.62l2.06,2.54c-.73.84-1.5,1.52-2.31,2.05s-1.64.94-2.48,1.24c-.85.3-1.7.5-2.55.62s-1.69.17-2.5.17c-1.45,0-2.84-.27-4.16-.82-1.32-.55-2.48-1.35-3.48-2.39-1-1.05-1.79-2.33-2.38-3.86-.59-1.53-.88-3.27-.88-5.22,0-1.71.26-3.31.77-4.8.51-1.49,1.27-2.78,2.27-3.87,1-1.09,2.24-1.95,3.71-2.58,1.47-.63,3.18-.94,5.12-.94s3.5.3,4.9.89,2.67,1.47,3.8,2.61l-1.88,2.5Zm13.46,18.48c-1.13,0-2.13-.16-2.99-.49-.86-.33-1.59-.79-2.18-1.4-.59-.6-1.03-1.33-1.34-2.19-.31-.86-.46-1.81-.46-2.86v-12.27h-2.01c-.37,0-.68-.12-.94-.35-.26-.24-.39-.58-.39-1.04v-2.77l3.78-.73,1.4-5.79c.18-.73.7-1.1,1.56-1.1h3.71v6.94h5.77v4.85h-5.77v11.79c0,.55.13,1,.4,1.36.27.36.65.54,1.16.54.26,0,.48-.03.65-.08.18-.05.33-.12.46-.18.13-.07.25-.13.37-.18.11-.05.25-.08.4-.08.21,0,.39.05.52.15.13.1.26.26.4.47l2.15,3.37c-.92.69-1.95,1.2-3.09,1.54-1.15.34-2.33.52-3.55.52Zm20.56-24.48c1.8,0,3.44.28,4.92.85,1.48.56,2.75,1.37,3.81,2.43,1.06,1.05,1.89,2.33,2.47,3.83.59,1.5.88,3.19.88,5.07s-.29,3.6-.88,5.12c-.59,1.52-1.41,2.81-2.47,3.87-1.06,1.06-2.33,1.88-3.81,2.45s-3.12.86-4.92.86-3.47-.29-4.96-.86-2.77-1.39-3.85-2.45c-1.08-1.06-1.91-2.35-2.5-3.87-.59-1.52-.88-3.22-.88-5.12s.29-3.57.88-5.07c.59-1.5,1.42-2.78,2.5-3.83,1.08-1.05,2.36-1.86,3.85-2.43,1.49-.56,3.14-.85,4.96-.85Zm0,19.21c1.63,0,2.83-.58,3.61-1.73.77-1.15,1.16-2.9,1.16-5.25s-.39-4.1-1.16-5.24c-.77-1.15-1.97-1.72-3.61-1.72s-2.91.57-3.69,1.72c-.78,1.14-1.17,2.89-1.17,5.24s.39,4.1,1.17,5.25c.78,1.15,2.01,1.73,3.69,1.73Zm15.98,4.9v-23.74h4.21c.35,0,.64.03.88.09.24.06.43.16.6.29.16.13.28.3.37.52.08.21.16.47.22.78l.39,2.22c.87-1.34,1.85-2.4,2.93-3.18s2.27-1.17,3.55-1.17c1.08,0,1.95.26,2.61.78l-.92,5.22c-.06.32-.18.55-.37.68-.18.13-.43.19-.73.19-.26,0-.57-.03-.92-.1-.35-.07-.79-.1-1.33-.1-1.86,0-3.33.99-4.4,2.98v14.56h-7.1Zm27.06-30.25c0,.56-.11,1.1-.34,1.59-.23.5-.54.93-.94,1.3-.4.37-.86.67-1.38.89-.53.22-1.09.33-1.68.33s-1.12-.11-1.62-.33c-.5-.22-.95-.52-1.34-.89-.39-.37-.69-.81-.92-1.3-.22-.5-.33-1.03-.33-1.59s.11-1.12.33-1.63c.22-.5.53-.95.92-1.33.39-.38.84-.68,1.34-.89.5-.21,1.04-.32,1.62-.32s1.16.11,1.68.32c.53.21.99.51,1.38.89.4.38.71.82.94,1.33.23.5.34,1.05.34,1.63Zm-.82,6.5v23.74h-7.1v-23.74h7.1Zm22.12,23.74c-.67,0-1.18-.09-1.52-.28-.34-.18-.63-.56-.86-1.14l-.5-1.3c-.59.5-1.17.95-1.72,1.33-.55.38-1.12.71-1.71.97-.59.27-1.21.47-1.88.6-.66.13-1.4.19-2.21.19-1.08,0-2.07-.14-2.95-.42-.89-.28-1.64-.7-2.26-1.25-.62-.55-1.09-1.24-1.43-2.06-.34-.82-.5-1.77-.5-2.84,0-.84.21-1.71.64-2.6.43-.89,1.17-1.7,2.22-2.42,1.05-.73,2.47-1.34,4.26-1.83,1.79-.49,4.04-.74,6.75-.74v-1.02c0-1.4-.29-2.42-.86-3.04-.57-.62-1.39-.94-2.44-.94-.84,0-1.53.09-2.06.27-.54.18-1.01.39-1.43.62-.42.23-.83.43-1.22.62-.4.18-.87.27-1.42.27-.49,0-.91-.12-1.25-.35-.34-.24-.62-.53-.81-.88l-1.28-2.22c1.43-1.27,3.03-2.21,4.77-2.83,1.75-.62,3.62-.93,5.62-.93,1.43,0,2.73.23,3.88.7,1.15.47,2.13,1.11,2.93,1.95.8.83,1.42,1.82,1.84,2.96.43,1.14.64,2.4.64,3.75v14.84h-3.25Zm-8.15-4.33c.92,0,1.72-.16,2.4-.48.69-.32,1.38-.84,2.08-1.56v-3.25c-1.42,0-2.59.09-3.5.28s-1.64.42-2.17.69c-.54.28-.91.59-1.11.95s-.31.74-.31,1.15c0,.82.22,1.39.66,1.72.44.33,1.09.5,1.95.5Zm34.38-9.11c.28.63.55,1.27.81,1.92.26-.67.53-1.33.82-1.96.29-.63.59-1.25.89-1.84l8.56-16.87c.15-.29.31-.52.47-.68.16-.16.34-.28.54-.35.2-.08.42-.11.67-.11h6.79v33.34h-6.82v-19.19c0-.93.05-1.94.14-3.02l-8.84,17.15c-.28.54-.65.94-1.11,1.21-.47.27-1,.41-1.59.41h-1.05c-.6,0-1.13-.14-1.59-.41s-.83-.68-1.11-1.21l-8.88-17.17c.06.53.11,1.06.14,1.59.03.53.05,1.01.05,1.45v19.19h-6.82v-33.34h6.79c.25,0,.48.04.68.11.2.08.38.19.54.35.16.16.32.39.47.68l8.59,16.94c.31.58.6,1.18.88,1.81Zm35.22-10.67c1.57,0,3.01.24,4.32.73,1.3.49,2.43,1.2,3.37,2.13s1.67,2.07,2.2,3.42c.53,1.35.79,2.88.79,4.59,0,.54-.02.97-.07,1.31s-.13.6-.25.8c-.12.2-.29.34-.49.41-.21.08-.47.12-.79.12h-13.69c.23,1.98.83,3.42,1.81,4.32s2.24,1.34,3.78,1.34c.82,0,1.53-.1,2.13-.3.6-.2,1.13-.42,1.59-.66.46-.24.89-.47,1.28-.66.39-.2.8-.3,1.22-.3.56,0,.99.21,1.28.62l2.06,2.54c-.73.84-1.52,1.52-2.37,2.05-.85.53-1.72.94-2.61,1.24-.89.3-1.79.5-2.68.62-.89.11-1.74.17-2.55.17-1.66,0-3.22-.27-4.68-.81-1.46-.54-2.73-1.35-3.82-2.42-1.09-1.07-1.95-2.4-2.59-3.98-.63-1.59-.95-3.43-.95-5.54,0-1.59.27-3.09.81-4.51s1.32-2.66,2.34-3.73c1.01-1.07,2.24-1.92,3.69-2.54,1.44-.63,3.07-.94,4.89-.94Zm.14,4.9c-1.36,0-2.42.39-3.18,1.16-.76.77-1.27,1.88-1.51,3.33h8.86c0-.56-.07-1.11-.22-1.65-.15-.53-.38-1.01-.71-1.43s-.76-.76-1.29-1.02c-.54-.26-1.18-.39-1.95-.39Zm22.94,19.58c-1.13,0-2.12-.16-2.99-.49s-1.59-.79-2.17-1.4c-.59-.6-1.03-1.33-1.34-2.19-.31-.86-.46-1.81-.46-2.86v-12.27h-2.01c-.37,0-.68-.12-.94-.35-.26-.24-.39-.58-.39-1.04v-2.77l3.78-.73,1.4-5.79c.18-.73.7-1.1,1.56-1.1h3.71v6.94h5.77v4.85h-5.77v11.79c0,.55.13,1,.4,1.36.27.36.65.54,1.16.54.26,0,.48-.03.65-.08.17-.05.33-.12.46-.18.13-.07.25-.13.37-.18.11-.05.25-.08.4-.08.21,0,.38.05.51.15s.26.26.4.47l2.15,3.37c-.92.69-1.95,1.2-3.09,1.54-1.14.34-2.33.52-3.55.52Zm9.98-.37v-23.74h4.21c.35,0,.64.03.88.09.24.06.43.16.6.29.16.13.28.3.37.52.08.21.16.47.22.78l.39,2.22c.87-1.34,1.85-2.4,2.93-3.18s2.27-1.17,3.55-1.17c1.08,0,1.95.26,2.61.78l-.92,5.22c-.06.32-.18.55-.37.68-.18.13-.43.19-.73.19-.26,0-.57-.03-.92-.1-.35-.07-.79-.1-1.33-.1-1.86,0-3.33.99-4.4,2.98v14.56h-7.1Zm27.06-30.25c0,.56-.11,1.1-.34,1.59-.23.5-.54.93-.94,1.3-.4.37-.86.67-1.38.89-.53.22-1.09.33-1.68.33s-1.12-.11-1.62-.33c-.5-.22-.95-.52-1.34-.89-.39-.37-.69-.81-.92-1.3-.22-.5-.33-1.03-.33-1.59s.11-1.12.33-1.63c.22-.5.53-.95.92-1.33.39-.38.84-.68,1.34-.89.5-.21,1.04-.32,1.62-.32s1.16.11,1.68.32c.53.21.99.51,1.38.89.4.38.71.82.94,1.33.23.5.34,1.05.34,1.63Zm-.82,6.5v23.74h-7.1v-23.74h7.1Zm22.85,5.63c-.21.26-.42.47-.62.62-.2.15-.48.23-.85.23s-.67-.08-.95-.25-.6-.35-.95-.56c-.35-.21-.76-.39-1.24-.56-.47-.17-1.06-.25-1.76-.25-.87,0-1.62.16-2.26.48-.63.32-1.16.78-1.57,1.37-.41.6-.72,1.32-.92,2.19-.2.86-.3,1.83-.3,2.92,0,2.27.44,4.02,1.32,5.24.88,1.22,2.09,1.83,3.63,1.83.82,0,1.48-.1,1.96-.31.48-.21.89-.44,1.23-.69.33-.25.64-.48.93-.7.28-.21.64-.32,1.07-.32.56,0,.99.21,1.28.62l2.06,2.54c-.73.84-1.5,1.52-2.31,2.05-.81.53-1.64.94-2.48,1.24-.85.3-1.7.5-2.55.62-.86.11-1.69.17-2.5.17-1.45,0-2.83-.27-4.16-.82s-2.48-1.35-3.48-2.39-1.79-2.33-2.38-3.86c-.59-1.53-.88-3.27-.88-5.22,0-1.71.26-3.31.77-4.8.51-1.49,1.27-2.78,2.27-3.87,1-1.09,2.24-1.95,3.71-2.58,1.47-.63,3.18-.94,5.12-.94s3.5.3,4.9.89,2.67,1.47,3.8,2.61l-1.88,2.5Zm19.65-.44c-.18.29-.38.5-.58.62s-.47.18-.79.18-.67-.07-1.01-.22c-.34-.14-.7-.3-1.09-.47-.39-.17-.83-.32-1.32-.47-.49-.15-1.05-.22-1.67-.22-.9,0-1.59.17-2.07.52-.48.34-.72.82-.72,1.43,0,.44.16.81.47,1.1.31.29.73.55,1.25.77s1.11.43,1.76.63c.66.2,1.33.42,2.02.66.69.24,1.36.53,2.01.86.66.33,1.24.73,1.76,1.21s.93,1.06,1.25,1.75c.31.69.47,1.51.47,2.47,0,1.17-.21,2.26-.64,3.25-.43.99-1.06,1.85-1.91,2.56-.85.72-1.89,1.27-3.14,1.67-1.24.4-2.67.6-4.29.6-.81,0-1.62-.08-2.43-.23s-1.59-.36-2.35-.62c-.76-.26-1.45-.57-2.09-.93-.64-.36-1.19-.74-1.65-1.16l1.65-2.61c.2-.3.43-.55.71-.72.27-.18.63-.26,1.08-.26.41,0,.78.09,1.11.27.33.18.68.38,1.06.6.38.21.83.41,1.34.59.51.18,1.16.28,1.94.28.55,0,1.01-.06,1.4-.17.38-.11.69-.27.92-.47.23-.2.4-.42.5-.66.11-.24.16-.5.16-.75,0-.47-.16-.86-.48-1.17-.32-.3-.74-.57-1.26-.79-.52-.22-1.11-.43-1.77-.62-.66-.19-1.34-.41-2.03-.65-.69-.24-1.36-.54-2.03-.88-.66-.34-1.26-.78-1.77-1.3-.52-.53-.94-1.17-1.26-1.93-.32-.76-.48-1.69-.48-2.77,0-1.01.19-1.96.58-2.87.39-.91.97-1.71,1.75-2.39.78-.69,1.76-1.23,2.93-1.64,1.18-.4,2.55-.61,4.12-.61.86,0,1.68.08,2.48.23.8.15,1.55.37,2.26.64.7.27,1.34.6,1.92.97s1.09.78,1.53,1.23l-1.6,2.5Z"/><path class="cls-2" d="m1.63,14.88C-6.38,7.48,15.98.08,50.47,0h.31c34.42.08,56.71,7.48,48.62,14.88,0,0-29.84,27.4-40.14,36.18-1.98,1.68-5.27,2.9-8.55,2.98h-.31c-3.28-.08-6.56-1.3-8.55-2.98C31.55,42.28,1.63,14.88,1.63,14.88Zm57.7,50.98c-1.98,1.68-5.27,2.9-8.55,2.98h-.31c-3.28-.08-6.56-1.3-8.55-2.98C34.75,59.76,9.57,36.94.1,28.31v13.2c0,1.45.53,3.36,1.53,4.27,6.41,5.88,31.29,28.7,40.3,36.33,1.98,1.68,5.27,2.9,8.55,2.98h.31c3.28-.08,6.56-1.3,8.55-2.98,8.93-7.63,33.81-30.37,40.3-36.33.99-.92,1.53-2.82,1.53-4.27v-13.2c-9.54,8.62-34.73,31.52-41.82,37.55Zm0,31.06c-1.98,1.68-5.27,2.9-8.55,2.98h-.31c-3.28-.08-6.56-1.3-8.55-2.98C34.75,90.82,9.57,68,.1,59.38v13.2c0,1.45.53,3.36,1.53,4.27,6.41,5.88,31.29,28.7,40.3,36.33,1.98,1.68,5.27,2.9,8.55,2.98h.31c3.28-.08,6.56-1.3,8.55-2.98,8.93-7.63,33.81-30.37,40.3-36.33.99-.92,1.53-2.82,1.53-4.27v-13.2c-9.54,8.62-34.73,31.52-41.82,37.55Z"/></g></svg>